<svg width="512" height="512" viewBox="0 0 512 512" fill="none" xmlns="http://www.w3.org/2000/svg">
<g clip-path="url(#clip0_802_7)">
<path d="M271.26 242.25C278.32 253.98 283.58 266.41 287.07 279.52V57.29C264.79 58.03 247.22 63.99 234.38 75.15C221.91 86.31 215.68 99.52 215.68 114.77V187.77C215.93 187.92 216.18 188.06 216.42 188.21C239.78 202.33 258.06 220.34 271.25 242.26L271.26 242.25Z" fill="white"/>
<path d="M512 306.71C512 329.4 508.4 349.87 501.23 368.09C494.06 385.95 484.42 401.2 472.34 413.85C460.25 426.5 446.47 436.36 430.99 443.42C415.5 450.49 399.45 454.21 382.83 454.58C366.21 455.32 349.59 452.72 332.97 446.77C316.35 440.82 301.05 430.96 287.07 417.2V447.89H217.63C219.49 446.81 221.36 445.69 223.21 444.52C243.18 431.89 259.39 414.99 271.82 393.82C284.25 372.15 291.01 350.08 292.13 327.62C294.74 337.58 298.33 346.8 302.94 355.27C308.61 365.68 316.35 374.24 326.17 380.94C335.99 387.26 348.27 390.42 363 390.42C380.37 390.42 394.72 386.33 406.06 378.15C417.76 369.96 426.45 359.73 432.12 347.46C437.79 335.18 440.43 321.79 440.05 307.28C440.05 292.77 437.02 279.38 430.99 267.1C425.32 254.83 416.63 244.6 404.92 236.41C393.59 228.22 379.42 224.13 362.43 224.13C352.24 224.13 341.28 225.81 329.57 229.16C318.24 232.14 309.37 238.09 302.94 247.02C299.54 241.07 297.65 233.26 297.27 223.59C297.27 213.92 299.73 204.43 304.63 195.13C309.54 185.83 317.29 177.64 327.86 170.58C338.44 163.51 353.17 159.61 372.05 158.86C390.18 158.49 407.56 161.84 424.17 168.9C441.17 175.97 456.09 186.01 468.93 199.04C482.15 212.05 492.54 227.86 500.09 246.46C508.02 264.69 511.99 284.77 511.99 306.72L512 306.71Z" fill="white"/>
<path d="M1.88004 295.62C0.810036 303.6 0.110036 311.64 0.0100363 319.57C-0.0899637 311.58 0.540036 303.6 1.88004 295.62Z" fill="white"/>
<path d="M258.79 386.4C247.73 405.26 233.36 420.35 215.68 431.69C215.45 431.84 215.23 431.99 215 432.14C197.01 443.53 177.83 450.57 157.47 453.25C137.11 456.26 116.58 454.59 95.87 448.22C75.51 442.19 57.18 431.13 40.88 415.05C22.56 396.63 10.34 375.35 4.23001 351.23C1.56001 340.67 0.15001 330.11 0.0100098 319.57C0.11001 311.64 0.81001 303.6 1.88001 295.62C2.82001 290.03 4.10001 284.44 5.75001 278.85C8.81001 269.14 13.74 261.1 20.52 254.73C27.65 248.36 35.62 243.68 44.45 240.66C53.27 237.64 62.44 236.3 71.94 236.64C81.45 236.98 90.27 238.98 98.41 242.66C106.57 246.01 113.35 251.05 118.78 257.75C122.2 261.52 124.78 265.82 126.52 270.65C127.73 273.98 128.55 277.54 128.97 281.36C123.87 277.68 117.76 275.84 110.64 275.84C103.51 275.5 96.55 277.01 89.76 280.36C83.31 283.38 77.71 288.24 72.96 294.94C68.55 301.3 66.34 309.34 66.34 319.06C66.34 335.81 69.9 349.72 77.03 360.77C84.16 371.83 92.98 380.21 103.51 385.9C114.36 391.26 125.91 393.94 138.12 393.94C150.33 393.94 162.22 391.1 172.75 385.4C183.61 379.7 192.6 371.33 199.73 360.27C206.86 348.88 210.42 334.81 210.42 318.06C210.42 304.99 208.05 293.43 203.29 283.38C198.54 273.33 192.1 265.12 183.95 258.75C176.14 252.05 166.98 247.52 156.45 245.18C145.93 242.5 134.73 242.33 122.85 244.68C117.76 238.65 111.48 233.96 104.01 230.61C96.89 226.92 89.08 224.58 80.6 223.57C72.11 222.23 63.62 222.4 55.14 224.07C46.65 225.41 38.68 228.26 31.21 232.61C37.38 225.3 44.02 218.76 51.11 212.97C59.6 206.03 68.75 200.18 78.56 195.42C96.55 186.38 116.24 181.86 137.62 181.86C164.43 181.86 188.19 188.22 208.89 200.95C211.22 202.36 213.48 203.81 215.68 205.31C233.51 217.32 247.71 232.12 258.28 249.7C270.16 269.47 276.43 291.42 277.11 315.54C278.13 339.67 272.03 363.28 258.79 386.4Z" fill="white"/>
</g>
<defs>
<clipPath id="clip0_802_7">
<rect width="512" height="512" fill="white"/>
</clipPath>
</defs>
</svg>
